<svg width="17" height="17" viewBox="0 0 17 17" fill="none" xmlns="http://www.w3.org/2000/svg">
<path d="M11.4474 10.1V11.86L12.7947 12.66M11.4474 0.5V3.7M15.6579 4.9V3.7C15.6579 3.27565 15.4805 2.86869 15.1646 2.56863C14.8487 2.26857 14.4204 2.1 13.9737 2.1H2.18421C1.73753 2.1 1.30914 2.26857 0.993294 2.56863C0.677443 2.86869 0.5 3.27565 0.5 3.7V14.9C0.5 15.3243 0.677443 15.7313 0.993294 16.0314C1.30914 16.3314 1.73753 16.5 2.18421 16.5H5.13158M0.5 6.9H4.71053M4.71053 0.5V3.7M16.5 11.7C16.5 14.351 14.2379 16.5 11.4474 16.5C8.65688 16.5 6.39474 14.351 6.39474 11.7C6.39474 9.04903 8.65688 6.9 11.4474 6.9C14.2379 6.9 16.5 9.04903 16.5 11.7Z" stroke="white" stroke-linecap="round" stroke-linejoin="round"/>
</svg>
