<svg width="8" height="12" viewBox="0 0 8 12" fill="none" xmlns="http://www.w3.org/2000/svg">
  <path
    fill-rule="evenodd"
    clip-rule="evenodd"
    d="M7.73345 11.8245C7.43891 12.0585 6.96255 12.0585 6.66874 11.8245L0.44121 6.86636C0.30181 6.75707 0.19081 6.62553 0.11496 6.47974C0.03911 6.33395 0 6.17695 0 6.0183C0 5.85965 0.03911 5.70266 0.11496 5.55687C0.19081 5.41108 0.30181 5.27954 0.44121 5.17024L6.71383 0.175496C6.85619 0.0638706 7.04471 0.00112943 7.24111 1.51006e-05C7.43751 -0.00109923 7.62706 0.0594968 7.77126 0.169497C7.8427 0.223818 7.89986 0.28966 7.9392 0.362944C7.97854 0.436229 7.99923 0.515397 7.99998 0.595544C8.00073 0.675692 7.98153 0.755113 7.94356 0.82889C7.9056 0.902667 7.84967 0.969229 7.77926 1.02445L2.03827 5.59442C1.96852 5.64907 1.91297 5.71486 1.87501 5.78778C1.83705 5.86071 1.81748 5.93924 1.81748 6.0186C1.81748 6.09796 1.83705 6.1765 1.87501 6.24942C1.91297 6.32234 1.96852 6.38813 2.03827 6.44278L7.73345 10.9768C7.80318 11.0313 7.85872 11.0971 7.89667 11.17C7.93462 11.2428 7.95419 11.3213 7.95419 11.4006C7.95419 11.4799 7.93462 11.5584 7.89667 11.6313C7.85872 11.7042 7.80318 11.7699 7.73345 11.8245Z"
    fill="currentColor"
  />
</svg>