<svg width="17" height="17" viewBox="0 0 17 17" fill="none" xmlns="http://www.w3.org/2000/svg">
<path d="M0.5 8.5H2.9M2.9 8.5C2.9 11.5928 5.40721 14.1 8.5 14.1M2.9 8.5C2.9 5.40721 5.40721 2.9 8.5 2.9M14.1 8.5H16.5M14.1 8.5C14.1 11.5928 11.5928 14.1 8.5 14.1M14.1 8.5C14.1 5.40721 11.5928 2.9 8.5 2.9M8.5 0.5V2.9M8.5 14.1V16.5M10.9 8.5C10.9 9.82548 9.82548 10.9 8.5 10.9C7.17452 10.9 6.1 9.82548 6.1 8.5C6.1 7.17452 7.17452 6.1 8.5 6.1C9.82548 6.1 10.9 7.17452 10.9 8.5Z" stroke="#0F172A" stroke-linecap="round" stroke-linejoin="round"/>
</svg>
