<svg width="15" height="17" viewBox="0 0 15 17" fill="none" xmlns="http://www.w3.org/2000/svg">
  <path
    fill-rule="evenodd"
    clip-rule="evenodd"
    d="M0.5 7.20138C0.513135 3.48774 3.65777 0.487462 7.52374 0.500039C11.3897 0.512696 14.5131 3.53343 14.5 7.24707V7.32322C14.4524 9.73721 13.0492 11.9684 11.3289 13.7123C10.3451 14.6937 9.24647 15.5625 8.05488 16.3014C7.73626 16.5662 7.26366 16.5662 6.94504 16.3014C5.16867 15.1908 3.60961 13.7885 2.33917 12.1588C1.20686 10.7377 0.563967 9.01278 0.5 7.22423V7.20138Z"
    stroke="currentColor"
    stroke-linecap="round"
    stroke-linejoin="round"
  />
  <path
    d="M7.4997 9.4858C8.7388 9.4858 9.74329 8.52089 9.74329 7.33061C9.74329 6.14033 8.7388 5.17542 7.4997 5.17542C6.26059 5.17542 5.2561 6.14033 5.2561 7.33061C5.2561 8.52089 6.26059 9.4858 7.4997 9.4858Z"
    stroke="currentColor"
    stroke-linecap="round"
    stroke-linejoin="round"
  />
</svg>