<svg width="16" height="16" viewBox="0 0 16 16" fill="none" xmlns="http://www.w3.org/2000/svg">
<path d="M15.9153 5.98308C15.6885 5.25683 15.0675 4.78727 14.3328 4.78727H11.1065C10.8653 4.78727 10.6535 4.62691 10.5792 4.38867L9.58226 1.19581C9.35548 0.469555 8.73449 0 7.99984 0C7.26519 0 6.64475 0.468979 6.41742 1.19581L5.42051 4.38867C5.34621 4.62691 5.13386 4.78727 4.89322 4.78727H1.6674C0.933301 4.78727 0.31231 5.25625 0.0849832 5.98308C-0.142344 6.70991 0.0955178 7.46905 0.68934 7.91783L3.29972 9.89066C3.49489 10.0378 3.57584 10.2973 3.50099 10.5356L2.50407 13.7284C2.2773 14.4547 2.51461 15.2144 3.10843 15.6632C3.70225 16.1126 4.47073 16.112 5.06344 15.6632L7.67382 13.6904C7.86899 13.5427 8.13069 13.5427 8.32586 13.6904L10.9362 15.6632C11.2334 15.8876 11.5733 15.9995 11.9143 15.9995C12.2553 15.9995 12.5952 15.8876 12.8918 15.6632C13.4856 15.2144 13.7229 14.4547 13.4962 13.7284L12.4992 10.5356C12.4244 10.2973 12.5059 10.0383 12.7005 9.89066L15.3109 7.91783C15.9047 7.46847 16.142 6.70934 15.9153 5.98308Z" fill="#FFC633"/>
</svg>
