<svg width="8" height="12" viewBox="0 0 8 12" fill="none" xmlns="http://www.w3.org/2000/svg">
<path fill-rule="evenodd" clip-rule="evenodd" d="M0.266555 11.8245C0.561095 12.0585 1.03745 12.0585 1.33126 11.8245L7.55879 6.86636C7.69819 6.75707 7.80919 6.62553 7.88504 6.47974C7.96089 6.33395 8 6.17695 8 6.0183C8 5.85965 7.96089 5.70266 7.88504 5.55687C7.80919 5.41108 7.69819 5.27954 7.55879 5.17024L1.28617 0.175496C1.14381 0.0638706 0.955292 0.00112943 0.758893 1.51006e-05C0.562494 -0.00109923 0.372944 0.0594968 0.228737 0.169497C0.1573 0.223818 0.100141 0.28966 0.060799 0.362944C0.0214574 0.436229 0.000771093 0.515397 2.11489e-05 0.595544C-0.000728795 0.675692 0.0184736 0.755113 0.0564391 0.82889C0.0944047 0.902667 0.150325 0.969229 0.220738 1.02445L5.96173 5.59442C6.03148 5.64907 6.08703 5.71486 6.12499 5.78778C6.16295 5.86071 6.18252 5.93924 6.18252 6.0186C6.18252 6.09796 6.16295 6.1765 6.12499 6.24942C6.08703 6.32234 6.03148 6.38813 5.96173 6.44278L0.266555 10.9768C0.196818 11.0313 0.141283 11.0971 0.103333 11.17C0.0653829 11.2428 0.0458117 11.3213 0.0458117 11.4006C0.0458117 11.4799 0.0653829 11.5584 0.103333 11.6313C0.141283 11.7042 0.196818 11.7699 0.266555 11.8245Z"  fill="currentColor"/>
</svg>
